<?xml version="1.0" encoding="UTF-8" standalone="no"?>
<svg
   xmlns:dc="http://purl.org/dc/elements/1.1/"
   xmlns:cc="http://creativecommons.org/ns#"
   xmlns:rdf="http://www.w3.org/1999/02/22-rdf-syntax-ns#"
   xmlns:svg="http://www.w3.org/2000/svg"
   xmlns="http://www.w3.org/2000/svg"
   xmlns:sodipodi="http://sodipodi.sourceforge.net/DTD/sodipodi-0.dtd"
   xmlns:inkscape="http://www.inkscape.org/namespaces/inkscape"
   viewBox="0 0 896 500"
   preserveAspectRatio="xMinYMin meet"
   class="viz code-frequency"
   version="1.1"
   id="svg204"
   sodipodi:docname="code-frequency.svg"
   inkscape:version="1.0.1 (c497b03c, 2020-09-10)">
  <metadata
     id="metadata210">
    <rdf:RDF>
      <cc:Work
         rdf:about="">
        <dc:format>image/svg+xml</dc:format>
        <dc:type
           rdf:resource="http://purl.org/dc/dcmitype/StillImage" />
      </cc:Work>
    </rdf:RDF>
  </metadata>
  <defs
     id="defs208" />
  <sodipodi:namedview
     pagecolor="#ffffff"
     bordercolor="#666666"
     borderopacity="1"
     objecttolerance="10"
     gridtolerance="10"
     guidetolerance="10"
     inkscape:pageopacity="0"
     inkscape:pageshadow="2"
     inkscape:window-width="1204"
     inkscape:window-height="680"
     id="namedview206"
     showgrid="false"
     inkscape:zoom="0.79767584"
     inkscape:cx="271.37673"
     inkscape:cy="200.41701"
     inkscape:window-x="2236"
     inkscape:window-y="732"
     inkscape:window-maximized="0"
     inkscape:current-layer="svg204" />
  <g
     transform="translate(60,10)"
     id="g202">
    <g
       class="x axis"
       transform="translate(0, 390)"
       fill="none"
       font-size="10"
       font-family="sans-serif"
       text-anchor="middle"
       id="g126">
      <path
         class="domain"
         stroke="currentColor"
         d="M0.5,6V0.5H826.5V6"
         id="path10" />
      <g
         class="tick"
         opacity="1"
         transform="translate(15.008196721311474,0)"
         id="g16">
        <line
           stroke="currentColor"
           y2="6"
           id="line12" />
        <text
           fill="#6a737d"
           y="9"
           dy=".15em"
           dx="-.8em"
           transform="rotate(-45)"
           style="text-anchor: end;"
           id="text14">January 2019</text>
      </g>
      <g
         class="tick"
         opacity="1"
         transform="translate(58.51263661202186,0)"
         id="g22">
        <line
           stroke="currentColor"
           y2="6"
           id="line18" />
        <text
           fill="#6a737d"
           y="9"
           dy=".15em"
           dx="-.8em"
           transform="rotate(-45)"
           style="text-anchor: end;"
           id="text20">April 2019</text>
      </g>
      <g
         class="tick"
         opacity="1"
         transform="translate(102.52083333333334,0)"
         id="g28">
        <line
           stroke="currentColor"
           y2="6"
           id="line24" />
        <text
           fill="#6a737d"
           y="9"
           dy=".15em"
           dx="-.8em"
           transform="rotate(-45)"
           style="text-anchor: end;"
           id="text26">July 2019</text>
      </g>
      <g
         class="tick"
         opacity="1"
         transform="translate(147.01263661202188,0)"
         id="g34">
        <line
           stroke="currentColor"
           y2="6"
           id="line30" />
        <text
           fill="#6a737d"
           y="9"
           dy=".15em"
           dx="-.8em"
           transform="rotate(-45)"
           style="text-anchor: end;"
           id="text32">October 2019</text>
      </g>
      <g
         class="tick"
         opacity="1"
         transform="translate(191.52459016393442,0)"
         id="g40">
        <line
           stroke="currentColor"
           y2="6"
           id="line36" />
        <text
           fill="#6a737d"
           y="9"
           dy=".15em"
           dx="-.8em"
           transform="rotate(-45)"
           style="text-anchor: end;"
           id="text38">January 2020</text>
      </g>
      <g
         class="tick"
         opacity="1"
         transform="translate(235.51263661202188,0)"
         id="g46">
        <line
           stroke="currentColor"
           y2="6"
           id="line42" />
        <text
           fill="#6a737d"
           y="9"
           dy=".15em"
           dx="-.8em"
           transform="rotate(-45)"
           style="text-anchor: end;"
           id="text44">April 2020</text>
      </g>
      <g
         class="tick"
         opacity="1"
         transform="translate(279.52083333333337,0)"
         id="g52">
        <line
           stroke="currentColor"
           y2="6"
           id="line48" />
        <text
           fill="#6a737d"
           y="9"
           dy=".15em"
           dx="-.8em"
           transform="rotate(-45)"
           style="text-anchor: end;"
           id="text50">July 2020</text>
      </g>
      <g
         class="tick"
         opacity="1"
         transform="translate(324.0126366120219,0)"
         id="g58">
        <line
           stroke="currentColor"
           y2="6"
           id="line54" />
        <text
           fill="#6a737d"
           y="9"
           dy=".15em"
           dx="-.8em"
           transform="rotate(-45)"
           style="text-anchor: end;"
           id="text56">October 2020</text>
      </g>
      <g
         class="tick"
         opacity="1"
         transform="translate(368.5245901639344,0)"
         id="g64">
        <line
           stroke="currentColor"
           y2="6"
           id="line60" />
        <text
           fill="#6a737d"
           y="9"
           dy=".15em"
           dx="-.8em"
           transform="rotate(-45)"
           style="text-anchor: end;"
           id="text62">January 2021</text>
      </g>
      <g
         class="tick"
         opacity="1"
         transform="translate(412.0290300546448,0)"
         id="g70">
        <line
           stroke="currentColor"
           y2="6"
           id="line66" />
        <text
           fill="#6a737d"
           y="9"
           dy=".15em"
           dx="-.8em"
           transform="rotate(-45)"
           style="text-anchor: end;"
           id="text68">April 2021</text>
      </g>
      <g
         class="tick"
         opacity="1"
         transform="translate(456.03722677595624,0)"
         id="g76">
        <line
           stroke="currentColor"
           y2="6"
           id="line72" />
        <text
           fill="#6a737d"
           y="9"
           dy=".15em"
           dx="-.8em"
           transform="rotate(-45)"
           style="text-anchor: end;"
           id="text74">July 2021</text>
      </g>
      <g
         class="tick"
         opacity="1"
         transform="translate(500.52903005464486,0)"
         id="g82">
        <line
           stroke="currentColor"
           y2="6"
           id="line78" />
        <text
           fill="#6a737d"
           y="9"
           dy=".15em"
           dx="-.8em"
           transform="rotate(-45)"
           style="text-anchor: end;"
           id="text80">October 2021</text>
      </g>
      <g
         class="tick"
         opacity="1"
         transform="translate(545.0409836065573,0)"
         id="g88">
        <line
           stroke="currentColor"
           y2="6"
           id="line84" />
        <text
           fill="#6a737d"
           y="9"
           dy=".15em"
           dx="-.8em"
           transform="rotate(-45)"
           style="text-anchor: end;"
           id="text86">January 2022</text>
      </g>
      <g
         class="tick"
         opacity="1"
         transform="translate(588.5454234972678,0)"
         id="g94">
        <line
           stroke="currentColor"
           y2="6"
           id="line90" />
        <text
           fill="#6a737d"
           y="9"
           dy=".15em"
           dx="-.8em"
           transform="rotate(-45)"
           style="text-anchor: end;"
           id="text92">April 2022</text>
      </g>
      <g
         class="tick"
         opacity="1"
         transform="translate(632.5536202185792,0)"
         id="g100">
        <line
           stroke="currentColor"
           y2="6"
           id="line96" />
        <text
           fill="#6a737d"
           y="9"
           dy=".15em"
           dx="-.8em"
           transform="rotate(-45)"
           style="text-anchor: end;"
           id="text98">July 2022</text>
      </g>
      <g
         class="tick"
         opacity="1"
         transform="translate(677.0454234972677,0)"
         id="g106">
        <line
           stroke="currentColor"
           y2="6"
           id="line102" />
        <text
           fill="#6a737d"
           y="9"
           dy=".15em"
           dx="-.8em"
           transform="rotate(-45)"
           style="text-anchor: end;"
           id="text104">October 2022</text>
      </g>
      <g
         class="tick"
         opacity="1"
         transform="translate(721.5573770491803,0)"
         id="g112">
        <line
           stroke="currentColor"
           y2="6"
           id="line108" />
        <text
           fill="#6a737d"
           y="9"
           dy=".15em"
           dx="-.8em"
           transform="rotate(-45)"
           style="text-anchor: end;"
           id="text110">January 2023</text>
      </g>
      <g
         class="tick"
         opacity="1"
         transform="translate(765.0618169398907,0)"
         id="g118">
        <line
           stroke="currentColor"
           y2="6"
           id="line114" />
        <text
           fill="#6a737d"
           y="9"
           dy=".15em"
           dx="-.8em"
           transform="rotate(-45)"
           style="text-anchor: end;"
           id="text116">April 2023</text>
      </g>
      <g
         class="tick"
         opacity="1"
         transform="translate(809.0700136612022,0)"
         id="g124">
        <line
           stroke="currentColor"
           y2="6"
           id="line120" />
        <text
           fill="#6a737d"
           y="9"
           dy=".15em"
           dx="-.8em"
           transform="rotate(-45)"
           style="text-anchor: end;"
           id="text122">July 2023</text>
      </g>
    </g>
    <g
       class="y axis"
       transform="translate(896, 0)"
       fill="none"
       font-size="10"
       font-family="sans-serif"
       text-anchor="end"
       id="g196">
      <path
         class="domain"
         stroke="currentColor"
         d="M-896,390.5H0.5V0.5H-896"
         id="path128" />
      <g
         class="tick"
         opacity="1"
         transform="translate(0,389.68114143920593)"
         id="g134">
        <line
           stroke="currentColor"
           x2="-896"
           id="line130" />
        <text
           fill="#6a737d"
           x="-901"
           dy="0.32em"
           id="text132">2K</text>
      </g>
      <g
         class="tick"
         opacity="1"
         transform="translate(0,352.46029776674936)"
         id="g140">
        <line
           stroke="currentColor"
           x2="-896"
           id="line136" />
        <text
           fill="#6a737d"
           x="-901"
           dy="0.32em"
           id="text138">1K</text>
      </g>
      <g
         class="tick"
         opacity="1"
         transform="translate(0,315.2394540942928)"
         id="g146">
        <line
           stroke="currentColor"
           x2="-896"
           id="line142" />
        <text
           fill="#6a737d"
           x="-901"
           dy="0.32em"
           id="text144">0</text>
      </g>
      <g
         class="tick"
         opacity="1"
         transform="translate(0,278.01861042183623)"
         id="g152">
        <line
           stroke="currentColor"
           x2="-896"
           id="line148" />
        <text
           fill="#6a737d"
           x="-901"
           dy="0.32em"
           id="text150">1K</text>
      </g>
      <g
         class="tick"
         opacity="1"
         transform="translate(0,240.79776674937966)"
         id="g158">
        <line
           stroke="currentColor"
           x2="-896"
           id="line154" />
        <text
           fill="#6a737d"
           x="-901"
           dy="0.32em"
           id="text156">2K</text>
      </g>
      <g
         class="tick"
         opacity="1"
         transform="translate(0,203.57692307692307)"
         id="g164">
        <line
           stroke="currentColor"
           x2="-896"
           id="line160" />
        <text
           fill="#6a737d"
           x="-901"
           dy="0.32em"
           id="text162">3K</text>
      </g>
      <g
         class="tick"
         opacity="1"
         transform="translate(0,166.3560794044665)"
         id="g170">
        <line
           stroke="currentColor"
           x2="-896"
           id="line166" />
        <text
           fill="#6a737d"
           x="-901"
           dy="0.32em"
           id="text168">4K</text>
      </g>
      <g
         class="tick"
         opacity="1"
         transform="translate(0,129.1352357320099)"
         id="g176">
        <line
           stroke="currentColor"
           x2="-896"
           id="line172" />
        <text
           fill="#6a737d"
           x="-901"
           dy="0.32em"
           id="text174">5K</text>
      </g>
      <g
         class="tick"
         opacity="1"
         transform="translate(0,91.91439205955334)"
         id="g182">
        <line
           stroke="currentColor"
           x2="-896"
           id="line178" />
        <text
           fill="#6a737d"
           x="-901"
           dy="0.32em"
           id="text180">6K</text>
      </g>
      <g
         class="tick"
         opacity="1"
         transform="translate(0,54.69354838709677)"
         id="g188">
        <line
           stroke="currentColor"
           x2="-896"
           id="line184" />
        <text
           fill="#6a737d"
           x="-901"
           dy="0.32em"
           id="text186">7K</text>
      </g>
      <g
         class="tick"
         opacity="1"
         transform="translate(0,17.4727047146402)"
         id="g194">
        <line
           stroke="currentColor"
           x2="-896"
           id="line190" />
        <text
           fill="#6a737d"
           x="-901"
           dy="0.32em"
           id="text192">8K</text>
      </g>
    </g>
    <path
       class="addition"
       fill="#2cbe4e"
       d="M0,314.7394540942928L3.3852459016393444,314.7394540942928L6.770491803278689,314.7394540942928L10.155737704918032,314.7394540942928L13.540983606557377,314.7394540942928L16.92622950819672,314.7394540942928L20.311475409836063,314.7394540942928L23.69672131147541,314.7394540942928L27.081967213114755,314.7394540942928L30.4672131147541,314.7394540942928L33.85245901639344,314.7394540942928L37.23770491803279,314.7394540942928L40.62295081967213,314.7394540942928L44.00819672131147,314.7394540942928L47.39344262295082,314.7394540942928L50.778688524590166,314.7394540942928L54.16393442622951,314.7394540942928L57.54918032786885,314.7394540942928L60.9344262295082,314.7394540942928L64.31967213114754,314.7394540942928L67.70491803278688,314.7394540942928L71.09016393442623,314.7394540942928L74.47540983606558,314.7394540942928L77.86065573770492,314.7394540942928L81.24590163934425,314.7394540942928L84.6311475409836,314.7394540942928L88.01639344262294,314.7394540942928L91.40163934426229,314.7394540942928L94.78688524590164,314.7394540942928L98.17213114754098,314.7394540942928L101.55737704918033,314.7394540942928L104.94262295081967,314.7394540942928L108.32786885245902,314.7394540942928L111.71311475409837,314.7394540942928L115.0983606557377,314.7394540942928L118.48360655737704,314.7394540942928L121.8688524590164,314.7394540942928L125.25409836065575,314.7394540942928L128.63934426229508,314.7394540942928L132.02459016393445,314.7394540942928L135.40983606557376,314.7394540942928L138.79508196721312,314.7394540942928L142.18032786885246,314.7394540942928L145.5655737704918,314.7394540942928L148.95081967213116,314.7394540942928L152.3360655737705,314.7394540942928L155.72131147540983,314.7394540942928L159.10655737704917,314.7394540942928L162.4918032786885,314.7394540942928L165.87704918032787,314.7394540942928L169.2622950819672,314.7394540942928L172.64754098360658,314.7394540942928L176.03278688524588,314.7394540942928L179.41803278688525,314.7394540942928L182.80327868852459,314.7394540942928L186.18852459016392,314.7394540942928L189.5737704918033,314.7394540942928L192.95901639344262,314.7394540942928L196.34426229508196,314.7394540942928L199.7295081967213,314.7394540942928L203.11475409836066,314.7394540942928L206.5,314.7394540942928L209.88524590163934,314.7394540942928L213.2704918032787,314.7394540942928L216.65573770491804,314.7394540942928L220.0409836065574,314.7394540942928L223.42622950819674,314.7394540942928L226.81147540983608,314.7394540942928L230.1967213114754,314.7394540942928L233.58196721311475,314.7394540942928L236.9672131147541,314.7394540942928L240.35245901639342,314.7394540942928L243.7377049180328,314.7394540942928L247.12295081967213,314.7394540942928L250.5081967213115,314.7394540942928L253.89344262295083,314.7394540942928L257.27868852459017,314.7394540942928L260.6639344262295,314.7394540942928L264.0491803278689,314.7394540942928L267.43442622950823,314.7394540942928L270.8196721311475,314.7394540942928L274.20491803278685,314.7394540942928L277.59016393442624,314.7394540942928L280.9754098360656,314.7394540942928L284.3606557377049,314.7394540942928L287.74590163934425,314.7394540942928L291.1311475409836,314.7394540942928L294.516393442623,314.7394540942928L297.9016393442623,314.7394540942928L301.28688524590166,314.7394540942928L304.672131147541,314.7394540942928L308.05737704918033,314.7394540942928L311.44262295081967,314.7394540942928L314.827868852459,314.7394540942928L318.21311475409834,314.7394540942928L321.5983606557377,314.7394540942928L324.983606557377,314.7394540942928L328.3688524590164,314.7394540942928L331.75409836065575,314.7394540942928L335.1393442622951,314.7394540942928L338.5245901639344,314.7394540942928L341.90983606557376,314.7394540942928L345.29508196721315,314.7394540942928L348.6803278688525,314.7394540942928L352.06557377049177,314.7394540942928L355.4508196721311,314.7394540942928L358.8360655737705,314.7394540942928L362.22131147540983,314.7394540942928L365.60655737704917,314.7394540942928L368.9918032786885,314.7394540942928L372.37704918032784,314.7394540942928L375.76229508196724,314.7394540942928L379.1475409836066,314.7394540942928L382.5327868852459,314.7394540942928L385.91803278688525,314.7394540942928L389.3032786885246,314.7394540942928L392.6885245901639,314.7394540942928L396.07377049180326,314.7394540942928L399.4590163934426,314.7394540942928L402.84426229508193,314.7394540942928L406.2295081967213,314.7394540942928L409.61475409836066,314.7394540942928L413,314.7394540942928L416.3852459016393,314.7394540942928L419.7704918032787,314.7394540942928L423.155737704918,314.7394540942928L426.5409836065574,314.7394540942928L429.9262295081967,314.7394540942928L433.3114754098361,314.7394540942928L436.6967213114754,314.7394540942928L440.0819672131148,314.7394540942928L443.4672131147541,314.7394540942928L446.8524590163935,314.7394540942928L450.23770491803276,314.7394540942928L453.62295081967216,314.7394540942928L457.0081967213115,314.7394540942928L460.3934426229508,314.7394540942928L463.77868852459017,314.7394540942928L467.1639344262295,314.7394540942928L470.5491803278689,314.7394540942928L473.9344262295082,314.7394540942928L477.31967213114757,314.7394540942928L480.70491803278685,314.7394540942928L484.09016393442624,314.7394540942928L487.4754098360656,314.7394540942928L490.860655737705,314.7394540942928L494.24590163934425,314.7394540942928L497.6311475409836,314.7394540942928L501.016393442623,314.7394540942928L504.40163934426226,314.7394540942928L507.78688524590166,314.7394540942928L511.17213114754094,314.7394540942928L514.5573770491803,314.7394540942928L517.9426229508197,314.7394540942928L521.327868852459,314.7394540942928L524.7131147540983,314.7394540942928L528.0983606557378,314.7394540942928L531.483606557377,314.7394540942928L534.8688524590165,314.7394540942928L538.2540983606557,314.7394540942928L541.639344262295,314.7394540942928L545.0245901639345,314.7394540942928L548.4098360655737,314.7394540942928L551.7950819672132,314.7394540942928L555.1803278688525,314.7394540942928L558.5655737704918,314.7394540942928L561.9508196721312,314.7394540942928L565.3360655737705,314.7394540942928L568.7213114754098,314.7394540942928L572.1065573770492,314.7394540942928L575.4918032786885,314.7394540942928L578.8770491803278,314.7394540942928L582.2622950819672,314.7394540942928L585.6475409836065,314.7394540942928L589.032786885246,314.7394540942928L592.4180327868852,314.7394540942928L595.8032786885246,314.7394540942928L599.1885245901639,314.7394540942928L602.5737704918033,314.7394540942928L605.9590163934427,314.7394540942928L609.344262295082,314.7394540942928L612.7295081967213,314.7394540942928L616.1147540983607,314.7394540942928L619.5,314.7394540942928L622.8852459016393,314.7394540942928L626.2704918032787,314.7394540942928L629.655737704918,314.7394540942928L633.0409836065573,314.7394540942928L636.4262295081967,314.7394540942928L639.8114754098361,314.7394540942928L643.1967213114754,314.7394540942928L646.5819672131148,314.7394540942928L649.967213114754,314.7394540942928L653.3524590163935,314.7394540942928L656.7377049180328,314.7394540942928L660.1229508196722,314.7394540942928L663.5081967213115,314.7394540942928L666.8934426229508,314.7394540942928L670.2786885245902,314.7394540942928L673.6639344262295,314.7394540942928L677.0491803278688,314.7394540942928L680.4344262295082,314.7394540942928L683.8196721311475,314.7394540942928L687.2049180327868,314.7394540942928L690.5901639344263,314.7394540942928L693.9754098360655,314.7394540942928L697.360655737705,314.7394540942928L700.7459016393443,314.7394540942928L704.1311475409835,314.7394540942928L707.516393442623,314.7394540942928L710.9016393442622,314.7394540942928L714.2868852459017,314.7394540942928L717.672131147541,314.7394540942928L721.0573770491803,314.7394540942928L724.4426229508197,314.7394540942928L727.827868852459,314.7394540942928L731.2131147540983,314.7394540942928L734.5983606557378,314.7394540942928L737.983606557377,314.7394540942928L741.3688524590165,314.7394540942928L744.7540983606557,314.7394540942928L748.139344262295,314.7394540942928L751.5245901639345,314.7394540942928L754.9098360655737,314.7394540942928L758.2950819672132,314.7394540942928L761.6803278688525,314.7394540942928L765.0655737704918,314.7394540942928L768.4508196721312,314.7394540942928L771.8360655737705,314.7394540942928L775.2213114754098,314.7394540942928L778.6065573770492,314.7394540942928L781.9918032786885,314.7394540942928L785.3770491803278,314.7394540942928L788.7622950819672,314.7394540942928L792.1475409836065,314.7394540942928L795.532786885246,314.7394540942928L798.9180327868852,314.7394540942928L802.3032786885246,314.7394540942928L805.6885245901639,314.7394540942928L809.0737704918033,314.7394540942928L812.4590163934427,314.7394540942928L815.844262295082,314.7394540942928L819.2295081967213,314.7394540942928L822.6147540983607,314.7394540942928L826,314.7394540942928L826,314.7394540942928L822.6147540983607,314.7394540942928L819.2295081967213,314.7394540942928L815.844262295082,314.7394540942928L812.4590163934427,283.95781637717124L809.0737704918033,314.7394540942928L805.6885245901639,314.7394540942928L802.3032786885246,314.7394540942928L798.9180327868852,314.7394540942928L795.532786885246,314.7394540942928L792.1475409836065,314.7394540942928L788.7622950819672,314.7394540942928L785.3770491803278,314.7394540942928L781.9918032786885,314.7394540942928L778.6065573770492,314.7394540942928L775.2213114754098,314.7394540942928L771.8360655737705,314.7394540942928L768.4508196721312,314.7394540942928L765.0655737704918,314.7394540942928L761.6803278688525,314.7394540942928L758.2950819672132,314.7394540942928L754.9098360655737,314.7394540942928L751.5245901639345,314.7394540942928L748.139344262295,314.7394540942928L744.7540983606557,314.7394540942928L741.3688524590165,314.7394540942928L737.983606557377,314.7394540942928L734.5983606557378,314.7394540942928L731.2131147540983,314.7394540942928L727.827868852459,314.7394540942928L724.4426229508197,314.7394540942928L721.0573770491803,314.7394540942928L717.672131147541,314.7394540942928L714.2868852459017,314.7394540942928L710.9016393442622,314.7394540942928L707.516393442623,300.0744416873449L704.1311475409835,289.09429280397023L700.7459016393443,314.7394540942928L697.360655737705,314.7394540942928L693.9754098360655,314.7394540942928L690.5901639344263,314.7394540942928L687.2049180327868,314.7394540942928L683.8196721311475,307.4441687344913L680.4344262295082,314.7394540942928L677.0491803278688,314.7394540942928L673.6639344262295,314.7394540942928L670.2786885245902,314.7394540942928L666.8934426229508,314.7394540942928L663.5081967213115,314.7394540942928L660.1229508196722,314.7394540942928L656.7377049180328,314.7394540942928L653.3524590163935,314.7394540942928L649.967213114754,314.7394540942928L646.5819672131148,314.7394540942928L643.1967213114754,314.7394540942928L639.8114754098361,314.7394540942928L636.4262295081967,314.7394540942928L633.0409836065573,314.7394540942928L629.655737704918,314.7394540942928L626.2704918032787,314.7394540942928L622.8852459016393,314.7394540942928L619.5,314.7394540942928L616.1147540983607,314.7394540942928L612.7295081967213,314.7394540942928L609.344262295082,314.7394540942928L605.9590163934427,314.7394540942928L602.5737704918033,302.38213399503724L599.1885245901639,314.7394540942928L595.8032786885246,312.72952853598014L592.4180327868852,314.7394540942928L589.032786885246,314.7394540942928L585.6475409836065,314.33002481389576L582.2622950819672,314.7394540942928L578.8770491803278,314.7394540942928L575.4918032786885,314.7394540942928L572.1065573770492,314.7394540942928L568.7213114754098,314.7394540942928L565.3360655737705,314.7394540942928L561.9508196721312,303.0521091811414L558.5655737704918,314.7394540942928L555.1803278688525,307.8908188585608L551.7950819672132,314.7394540942928L548.4098360655737,314.7394540942928L545.0245901639345,314.7394540942928L541.639344262295,314.7394540942928L538.2540983606557,314.7394540942928L534.8688524590165,314.7394540942928L531.483606557377,314.7394540942928L528.0983606557378,314.7394540942928L524.7131147540983,299.18114143920593L521.327868852459,303.3126550868486L517.9426229508197,275.2109181141439L514.5573770491803,314.7394540942928L511.17213114754094,314.7394540942928L507.78688524590166,314.4789081885856L504.40163934426226,302.67990074441684L501.016393442623,314.7394540942928L497.6311475409836,314.7394540942928L494.24590163934425,314.7394540942928L490.860655737705,314.7394540942928L487.4754098360656,314.7394540942928L484.09016393442624,314.7394540942928L480.70491803278685,314.7394540942928L477.31967213114757,314.7394540942928L473.9344262295082,314.7394540942928L470.5491803278689,314.7394540942928L467.1639344262295,314.7394540942928L463.77868852459017,314.7394540942928L460.3934426229508,314.7394540942928L457.0081967213115,314.7394540942928L453.62295081967216,314.7394540942928L450.23770491803276,314.7394540942928L446.8524590163935,314.7394540942928L443.4672131147541,314.7394540942928L440.0819672131148,314.7394540942928L436.6967213114754,314.7394540942928L433.3114754098361,314.7394540942928L429.9262295081967,314.7394540942928L426.5409836065574,314.7394540942928L423.155737704918,314.7394540942928L419.7704918032787,313.99503722084364L416.3852459016393,310.4218362282878L413,218.9330024813896L409.61475409836066,314.5533498759305L406.2295081967213,0L402.84426229508193,314.7394540942928L399.4590163934426,314.7394540942928L396.07377049180326,314.7394540942928L392.6885245901639,314.7394540942928L389.3032786885246,314.7394540942928L385.91803278688525,314.7394540942928L382.5327868852459,314.7394540942928L379.1475409836066,314.7394540942928L375.76229508196724,314.7394540942928L372.37704918032784,314.7394540942928L368.9918032786885,314.7394540942928L365.60655737704917,314.7394540942928L362.22131147540983,314.7394540942928L358.8360655737705,314.7394540942928L355.4508196721311,314.7394540942928L352.06557377049177,314.7394540942928L348.6803278688525,281.9106699751861L345.29508196721315,314.7394540942928L341.90983606557376,314.7394540942928L338.5245901639344,314.7394540942928L335.1393442622951,314.7394540942928L331.75409836065575,314.7394540942928L328.3688524590164,314.7394540942928L324.983606557377,314.7394540942928L321.5983606557377,314.7394540942928L318.21311475409834,314.7394540942928L314.827868852459,314.7394540942928L311.44262295081967,314.7394540942928L308.05737704918033,314.7394540942928L304.672131147541,314.7394540942928L301.28688524590166,314.7394540942928L297.9016393442623,314.7394540942928L294.516393442623,314.7394540942928L291.1311475409836,314.7394540942928L287.74590163934425,314.7394540942928L284.3606557377049,314.7394540942928L280.9754098360656,314.7394540942928L277.59016393442624,313.51116625310175L274.20491803278685,293.93300248138956L270.8196721311475,311.4267990074442L267.43442622950823,314.7394540942928L264.0491803278689,314.7394540942928L260.6639344262295,314.7394540942928L257.27868852459017,314.7394540942928L253.89344262295083,314.7394540942928L250.5081967213115,314.7394540942928L247.12295081967213,314.7394540942928L243.7377049180328,314.7394540942928L240.35245901639342,314.7394540942928L236.9672131147541,314.7394540942928L233.58196721311475,314.7394540942928L230.1967213114754,314.7394540942928L226.81147540983608,314.7394540942928L223.42622950819674,314.7394540942928L220.0409836065574,314.7394540942928L216.65573770491804,314.7394540942928L213.2704918032787,314.7394540942928L209.88524590163934,314.7394540942928L206.5,314.7394540942928L203.11475409836066,314.7394540942928L199.7295081967213,314.7394540942928L196.34426229508196,314.7394540942928L192.95901639344262,314.7394540942928L189.5737704918033,314.7394540942928L186.18852459016392,314.7394540942928L182.80327868852459,312.6923076923077L179.41803278688525,285.5955334987593L176.03278688524588,309.2679900744417L172.64754098360658,312.61786600496276L169.2622950819672,310.90570719602977L165.87704918032787,301.3771712158809L162.4918032786885,288.6104218362283L159.10655737704917,297.80397022332505L155.72131147540983,264.0074441687345L152.3360655737705,259.35483870967744L148.95081967213116,270.7071960297767L145.5655737704918,311.53846153846155L142.18032786885246,314.7394540942928L138.79508196721312,314.7394540942928L135.40983606557376,304.9131513647643L132.02459016393445,314.7394540942928L128.63934426229508,314.7394540942928L125.25409836065575,314.7394540942928L121.8688524590164,314.7394540942928L118.48360655737704,314.7394540942928L115.0983606557377,314.7394540942928L111.71311475409837,314.7394540942928L108.32786885245902,314.7394540942928L104.94262295081967,314.7394540942928L101.55737704918033,314.7394540942928L98.17213114754098,306.029776674938L94.78688524590164,314.7394540942928L91.40163934426229,314.7394540942928L88.01639344262294,301.302729528536L84.6311475409836,314.7394540942928L81.24590163934425,314.7394540942928L77.86065573770492,314.7394540942928L74.47540983606558,314.7394540942928L71.09016393442623,314.7394540942928L67.70491803278688,314.7394540942928L64.31967213114754,314.7394540942928L60.9344262295082,314.7394540942928L57.54918032786885,314.7394540942928L54.16393442622951,314.7394540942928L50.778688524590166,312.72952853598014L47.39344262295082,280.7940446650124L44.00819672131147,287.38213399503724L40.62295081967213,314.7394540942928L37.23770491803279,314.7394540942928L33.85245901639344,314.7394540942928L30.4672131147541,314.7394540942928L27.081967213114755,314.7394540942928L23.69672131147541,313.287841191067L20.311475409836063,302.8287841191067L16.92622950819672,297.6923076923077L13.540983606557377,314.7394540942928L10.155737704918032,203.93300248138956L6.770491803278689,293.8957816377171L3.3852459016393444,299.4789081885856L0,236.1290322580645Z"
       id="path198" />
    <path
       class="deletion"
       fill="#cf222e"
       d="M0,314.7394540942928L3.3852459016393444,314.7394540942928L6.770491803278689,314.7394540942928L10.155737704918032,314.7394540942928L13.540983606557377,314.7394540942928L16.92622950819672,314.7394540942928L20.311475409836063,314.7394540942928L23.69672131147541,314.7394540942928L27.081967213114755,314.7394540942928L30.4672131147541,314.7394540942928L33.85245901639344,314.7394540942928L37.23770491803279,314.7394540942928L40.62295081967213,314.7394540942928L44.00819672131147,314.7394540942928L47.39344262295082,314.7394540942928L50.778688524590166,314.7394540942928L54.16393442622951,314.7394540942928L57.54918032786885,314.7394540942928L60.9344262295082,314.7394540942928L64.31967213114754,314.7394540942928L67.70491803278688,314.7394540942928L71.09016393442623,314.7394540942928L74.47540983606558,314.7394540942928L77.86065573770492,314.7394540942928L81.24590163934425,314.7394540942928L84.6311475409836,314.7394540942928L88.01639344262294,314.7394540942928L91.40163934426229,314.7394540942928L94.78688524590164,314.7394540942928L98.17213114754098,314.7394540942928L101.55737704918033,314.7394540942928L104.94262295081967,314.7394540942928L108.32786885245902,314.7394540942928L111.71311475409837,314.7394540942928L115.0983606557377,314.7394540942928L118.48360655737704,314.7394540942928L121.8688524590164,314.7394540942928L125.25409836065575,314.7394540942928L128.63934426229508,314.7394540942928L132.02459016393445,314.7394540942928L135.40983606557376,314.7394540942928L138.79508196721312,314.7394540942928L142.18032786885246,314.7394540942928L145.5655737704918,314.7394540942928L148.95081967213116,314.7394540942928L152.3360655737705,314.7394540942928L155.72131147540983,314.7394540942928L159.10655737704917,314.7394540942928L162.4918032786885,314.7394540942928L165.87704918032787,314.7394540942928L169.2622950819672,314.7394540942928L172.64754098360658,314.7394540942928L176.03278688524588,314.7394540942928L179.41803278688525,314.7394540942928L182.80327868852459,314.7394540942928L186.18852459016392,314.7394540942928L189.5737704918033,314.7394540942928L192.95901639344262,314.7394540942928L196.34426229508196,314.7394540942928L199.7295081967213,314.7394540942928L203.11475409836066,314.7394540942928L206.5,314.7394540942928L209.88524590163934,314.7394540942928L213.2704918032787,314.7394540942928L216.65573770491804,314.7394540942928L220.0409836065574,314.7394540942928L223.42622950819674,314.7394540942928L226.81147540983608,314.7394540942928L230.1967213114754,314.7394540942928L233.58196721311475,314.7394540942928L236.9672131147541,314.7394540942928L240.35245901639342,314.7394540942928L243.7377049180328,314.7394540942928L247.12295081967213,314.7394540942928L250.5081967213115,314.7394540942928L253.89344262295083,314.7394540942928L257.27868852459017,314.7394540942928L260.6639344262295,314.7394540942928L264.0491803278689,314.7394540942928L267.43442622950823,314.7394540942928L270.8196721311475,314.7394540942928L274.20491803278685,314.7394540942928L277.59016393442624,314.7394540942928L280.9754098360656,314.7394540942928L284.3606557377049,314.7394540942928L287.74590163934425,314.7394540942928L291.1311475409836,314.7394540942928L294.516393442623,314.7394540942928L297.9016393442623,314.7394540942928L301.28688524590166,314.7394540942928L304.672131147541,314.7394540942928L308.05737704918033,314.7394540942928L311.44262295081967,314.7394540942928L314.827868852459,314.7394540942928L318.21311475409834,314.7394540942928L321.5983606557377,314.7394540942928L324.983606557377,314.7394540942928L328.3688524590164,314.7394540942928L331.75409836065575,314.7394540942928L335.1393442622951,314.7394540942928L338.5245901639344,314.7394540942928L341.90983606557376,314.7394540942928L345.29508196721315,314.7394540942928L348.6803278688525,314.7394540942928L352.06557377049177,314.7394540942928L355.4508196721311,314.7394540942928L358.8360655737705,314.7394540942928L362.22131147540983,314.7394540942928L365.60655737704917,314.7394540942928L368.9918032786885,314.7394540942928L372.37704918032784,314.7394540942928L375.76229508196724,314.7394540942928L379.1475409836066,314.7394540942928L382.5327868852459,314.7394540942928L385.91803278688525,314.7394540942928L389.3032786885246,314.7394540942928L392.6885245901639,314.7394540942928L396.07377049180326,314.7394540942928L399.4590163934426,314.7394540942928L402.84426229508193,314.7394540942928L406.2295081967213,314.7394540942928L409.61475409836066,314.7394540942928L413,314.7394540942928L416.3852459016393,314.7394540942928L419.7704918032787,314.7394540942928L423.155737704918,314.7394540942928L426.5409836065574,314.7394540942928L429.9262295081967,314.7394540942928L433.3114754098361,314.7394540942928L436.6967213114754,314.7394540942928L440.0819672131148,314.7394540942928L443.4672131147541,314.7394540942928L446.8524590163935,314.7394540942928L450.23770491803276,314.7394540942928L453.62295081967216,314.7394540942928L457.0081967213115,314.7394540942928L460.3934426229508,314.7394540942928L463.77868852459017,314.7394540942928L467.1639344262295,314.7394540942928L470.5491803278689,314.7394540942928L473.9344262295082,314.7394540942928L477.31967213114757,314.7394540942928L480.70491803278685,314.7394540942928L484.09016393442624,314.7394540942928L487.4754098360656,314.7394540942928L490.860655737705,314.7394540942928L494.24590163934425,314.7394540942928L497.6311475409836,314.7394540942928L501.016393442623,314.7394540942928L504.40163934426226,314.7394540942928L507.78688524590166,314.7394540942928L511.17213114754094,314.7394540942928L514.5573770491803,314.7394540942928L517.9426229508197,314.7394540942928L521.327868852459,314.7394540942928L524.7131147540983,314.7394540942928L528.0983606557378,314.7394540942928L531.483606557377,314.7394540942928L534.8688524590165,314.7394540942928L538.2540983606557,314.7394540942928L541.639344262295,314.7394540942928L545.0245901639345,314.7394540942928L548.4098360655737,314.7394540942928L551.7950819672132,314.7394540942928L555.1803278688525,314.7394540942928L558.5655737704918,314.7394540942928L561.9508196721312,314.7394540942928L565.3360655737705,314.7394540942928L568.7213114754098,314.7394540942928L572.1065573770492,314.7394540942928L575.4918032786885,314.7394540942928L578.8770491803278,314.7394540942928L582.2622950819672,314.7394540942928L585.6475409836065,314.7394540942928L589.032786885246,314.7394540942928L592.4180327868852,314.7394540942928L595.8032786885246,314.7394540942928L599.1885245901639,314.7394540942928L602.5737704918033,314.7394540942928L605.9590163934427,314.7394540942928L609.344262295082,314.7394540942928L612.7295081967213,314.7394540942928L616.1147540983607,314.7394540942928L619.5,314.7394540942928L622.8852459016393,314.7394540942928L626.2704918032787,314.7394540942928L629.655737704918,314.7394540942928L633.0409836065573,314.7394540942928L636.4262295081967,314.7394540942928L639.8114754098361,314.7394540942928L643.1967213114754,314.7394540942928L646.5819672131148,314.7394540942928L649.967213114754,314.7394540942928L653.3524590163935,314.7394540942928L656.7377049180328,314.7394540942928L660.1229508196722,314.7394540942928L663.5081967213115,314.7394540942928L666.8934426229508,314.7394540942928L670.2786885245902,314.7394540942928L673.6639344262295,314.7394540942928L677.0491803278688,314.7394540942928L680.4344262295082,314.7394540942928L683.8196721311475,314.7394540942928L687.2049180327868,314.7394540942928L690.5901639344263,314.7394540942928L693.9754098360655,314.7394540942928L697.360655737705,314.7394540942928L700.7459016393443,314.7394540942928L704.1311475409835,314.7394540942928L707.516393442623,314.7394540942928L710.9016393442622,314.7394540942928L714.2868852459017,314.7394540942928L717.672131147541,314.7394540942928L721.0573770491803,314.7394540942928L724.4426229508197,314.7394540942928L727.827868852459,314.7394540942928L731.2131147540983,314.7394540942928L734.5983606557378,314.7394540942928L737.983606557377,314.7394540942928L741.3688524590165,314.7394540942928L744.7540983606557,314.7394540942928L748.139344262295,314.7394540942928L751.5245901639345,314.7394540942928L754.9098360655737,314.7394540942928L758.2950819672132,314.7394540942928L761.6803278688525,314.7394540942928L765.0655737704918,314.7394540942928L768.4508196721312,314.7394540942928L771.8360655737705,314.7394540942928L775.2213114754098,314.7394540942928L778.6065573770492,314.7394540942928L781.9918032786885,314.7394540942928L785.3770491803278,314.7394540942928L788.7622950819672,314.7394540942928L792.1475409836065,314.7394540942928L795.532786885246,314.7394540942928L798.9180327868852,314.7394540942928L802.3032786885246,314.7394540942928L805.6885245901639,314.7394540942928L809.0737704918033,314.7394540942928L812.4590163934427,314.7394540942928L815.844262295082,314.7394540942928L819.2295081967213,314.7394540942928L822.6147540983607,314.7394540942928L826,314.7394540942928L826,314.7394540942928L822.6147540983607,314.7394540942928L819.2295081967213,314.7394540942928L815.844262295082,314.7394540942928L812.4590163934427,328.1389578163772L809.0737704918033,314.7394540942928L805.6885245901639,314.7394540942928L802.3032786885246,314.7394540942928L798.9180327868852,314.7394540942928L795.532786885246,314.7394540942928L792.1475409836065,314.7394540942928L788.7622950819672,314.7394540942928L785.3770491803278,314.7394540942928L781.9918032786885,314.7394540942928L778.6065573770492,314.7394540942928L775.2213114754098,314.7394540942928L771.8360655737705,314.7394540942928L768.4508196721312,314.7394540942928L765.0655737704918,314.7394540942928L761.6803278688525,314.7394540942928L758.2950819672132,314.7394540942928L754.9098360655737,314.7394540942928L751.5245901639345,314.7394540942928L748.139344262295,314.7394540942928L744.7540983606557,314.7394540942928L741.3688524590165,314.7394540942928L737.983606557377,314.7394540942928L734.5983606557378,314.7394540942928L731.2131147540983,314.7394540942928L727.827868852459,314.7394540942928L724.4426229508197,314.7394540942928L721.0573770491803,314.7394540942928L717.672131147541,314.7394540942928L714.2868852459017,314.7394540942928L710.9016393442622,314.7394540942928L707.516393442623,317.0471464019851L704.1311475409835,320.9925558312655L700.7459016393443,314.7394540942928L697.360655737705,314.7394540942928L693.9754098360655,314.7394540942928L690.5901639344263,314.7394540942928L687.2049180327868,314.7394540942928L683.8196721311475,315.40942928039703L680.4344262295082,314.7394540942928L677.0491803278688,314.7394540942928L673.6639344262295,314.7394540942928L670.2786885245902,314.7394540942928L666.8934426229508,314.7394540942928L663.5081967213115,314.7394540942928L660.1229508196722,314.7394540942928L656.7377049180328,314.7394540942928L653.3524590163935,314.7394540942928L649.967213114754,314.7394540942928L646.5819672131148,314.7394540942928L643.1967213114754,314.7394540942928L639.8114754098361,314.7394540942928L636.4262295081967,314.7394540942928L633.0409836065573,314.7394540942928L629.655737704918,314.7394540942928L626.2704918032787,314.7394540942928L622.8852459016393,314.7394540942928L619.5,314.7394540942928L616.1147540983607,314.7394540942928L612.7295081967213,314.7394540942928L609.344262295082,314.7394540942928L605.9590163934427,314.7394540942928L602.5737704918033,315.93052109181144L599.1885245901639,314.7394540942928L595.8032786885246,314.77667493796525L592.4180327868852,314.7394540942928L589.032786885246,314.7394540942928L585.6475409836065,314.7394540942928L582.2622950819672,314.7394540942928L578.8770491803278,314.7394540942928L575.4918032786885,314.7394540942928L572.1065573770492,314.7394540942928L568.7213114754098,314.7394540942928L565.3360655737705,314.7394540942928L561.9508196721312,319.16873449131515L558.5655737704918,314.7394540942928L555.1803278688525,315.48387096774195L551.7950819672132,314.7394540942928L548.4098360655737,314.7394540942928L545.0245901639345,314.7394540942928L541.639344262295,314.7394540942928L538.2540983606557,314.7394540942928L534.8688524590165,314.7394540942928L531.483606557377,314.7394540942928L528.0983606557378,314.7394540942928L524.7131147540983,324.56575682382135L521.327868852459,315.1116625310174L517.9426229508197,350.4714640198511L514.5573770491803,314.7394540942928L511.17213114754094,314.7394540942928L507.78688524590166,314.77667493796525L504.40163934426226,322.8163771712159L501.016393442623,314.7394540942928L497.6311475409836,314.7394540942928L494.24590163934425,314.7394540942928L490.860655737705,314.7394540942928L487.4754098360656,314.7394540942928L484.09016393442624,314.7394540942928L480.70491803278685,314.7394540942928L477.31967213114757,314.7394540942928L473.9344262295082,314.7394540942928L470.5491803278689,314.7394540942928L467.1639344262295,314.7394540942928L463.77868852459017,314.7394540942928L460.3934426229508,314.7394540942928L457.0081967213115,314.7394540942928L453.62295081967216,314.7394540942928L450.23770491803276,314.7394540942928L446.8524590163935,314.7394540942928L443.4672131147541,314.7394540942928L440.0819672131148,314.7394540942928L436.6967213114754,314.7394540942928L433.3114754098361,314.7394540942928L429.9262295081967,314.7394540942928L426.5409836065574,314.7394540942928L423.155737704918,314.7394540942928L419.7704918032787,315L416.3852459016393,316.19106699751865L413,375.5955334987593L409.61475409836066,314.96277915632754L406.2295081967213,363.0521091811414L402.84426229508193,314.7394540942928L399.4590163934426,314.7394540942928L396.07377049180326,314.7394540942928L392.6885245901639,314.7394540942928L389.3032786885246,314.7394540942928L385.91803278688525,314.7394540942928L382.5327868852459,314.7394540942928L379.1475409836066,314.7394540942928L375.76229508196724,314.7394540942928L372.37704918032784,314.7394540942928L368.9918032786885,314.7394540942928L365.60655737704917,314.7394540942928L362.22131147540983,314.7394540942928L358.8360655737705,314.7394540942928L355.4508196721311,314.7394540942928L352.06557377049177,314.7394540942928L348.6803278688525,344.5533498759305L345.29508196721315,314.7394540942928L341.90983606557376,314.7394540942928L338.5245901639344,314.7394540942928L335.1393442622951,314.7394540942928L331.75409836065575,314.7394540942928L328.3688524590164,314.7394540942928L324.983606557377,314.7394540942928L321.5983606557377,314.7394540942928L318.21311475409834,314.7394540942928L314.827868852459,314.7394540942928L311.44262295081967,314.7394540942928L308.05737704918033,314.7394540942928L304.672131147541,314.7394540942928L301.28688524590166,314.7394540942928L297.9016393442623,314.7394540942928L294.516393442623,314.7394540942928L291.1311475409836,314.7394540942928L287.74590163934425,314.7394540942928L284.3606557377049,314.7394540942928L280.9754098360656,314.7394540942928L277.59016393442624,314.8883374689826L274.20491803278685,323.52357320099253L270.8196721311475,317.605459057072L267.43442622950823,314.7394540942928L264.0491803278689,314.7394540942928L260.6639344262295,314.7394540942928L257.27868852459017,314.7394540942928L253.89344262295083,314.7394540942928L250.5081967213115,314.7394540942928L247.12295081967213,314.7394540942928L243.7377049180328,314.7394540942928L240.35245901639342,314.7394540942928L236.9672131147541,314.7394540942928L233.58196721311475,314.7394540942928L230.1967213114754,314.7394540942928L226.81147540983608,314.7394540942928L223.42622950819674,314.7394540942928L220.0409836065574,314.7394540942928L216.65573770491804,314.7394540942928L213.2704918032787,314.7394540942928L209.88524590163934,314.7394540942928L206.5,314.7394540942928L203.11475409836066,314.7394540942928L199.7295081967213,314.7394540942928L196.34426229508196,314.7394540942928L192.95901639344262,314.7394540942928L189.5737704918033,314.7394540942928L186.18852459016392,314.7394540942928L182.80327868852459,315.4466501240695L179.41803278688525,328.3995037220844L176.03278688524588,315.3722084367246L172.64754098360658,314.77667493796525L169.2622950819672,315.14888337468983L165.87704918032787,317.9032258064516L162.4918032786885,327.9156327543424L159.10655737704917,319.0198511166253L155.72131147540983,355.38461538461536L152.3360655737705,359.33002481389576L148.95081967213116,356.3151364764268L145.5655737704918,317.19602977667495L142.18032786885246,314.7394540942928L138.79508196721312,314.7394540942928L135.40983606557376,323.18858560794047L132.02459016393445,314.7394540942928L128.63934426229508,314.7394540942928L125.25409836065575,314.7394540942928L121.8688524590164,314.7394540942928L118.48360655737704,314.7394540942928L115.0983606557377,314.7394540942928L111.71311475409837,314.7394540942928L108.32786885245902,314.7394540942928L104.94262295081967,314.7394540942928L101.55737704918033,314.7394540942928L98.17213114754098,321.69975186104216L94.78688524590164,314.7394540942928L91.40163934426229,314.7394540942928L88.01639344262294,330.2605459057072L84.6311475409836,314.7394540942928L81.24590163934425,314.7394540942928L77.86065573770492,314.7394540942928L74.47540983606558,314.7394540942928L71.09016393442623,314.7394540942928L67.70491803278688,314.7394540942928L64.31967213114754,314.7394540942928L60.9344262295082,314.7394540942928L57.54918032786885,314.7394540942928L54.16393442622951,314.7394540942928L50.778688524590166,314.7394540942928L47.39344262295082,345.1861042183623L44.00819672131147,334.50372208436727L40.62295081967213,314.7394540942928L37.23770491803279,314.7394540942928L33.85245901639344,314.7394540942928L30.4672131147541,314.7394540942928L27.081967213114755,314.7394540942928L23.69672131147541,314.7394540942928L20.311475409836063,319.9875930521092L16.92622950819672,323.3374689826303L13.540983606557377,314.7394540942928L10.155737704918032,390L6.770491803278689,320.6575682382134L3.3852459016393444,327.0967741935484L0,318.64764267990074Z"
       id="path200" />
  </g>
  <text
     xml:space="preserve"
     style="font-size:16px;line-height:1.25;font-family:monospace;-inkscape-font-specification:monospace;fill:#ffffff;"
     x="73.999725"
     y="239.75903"
     id="label-1"><tspan
       sodipodi:role="line"
       id="tspan216"
       x="73.999725"
       y="239.75903">Initial work</tspan></text>
  <g
     id="label-2-group"
     style="fill:#ffffff">
    <text
       xml:space="preserve"
       style="font-size:16px;line-height:1.25;font-family:monospace;-inkscape-font-specification:monospace;fill:#ffffff"
       x="209.01605"
       y="246.58865"
       id="text222"><tspan
         sodipodi:role="line"
         id="tspan220"
         x="209.01605"
         y="246.58865">Big refactor</tspan></text>
    <text
       xml:space="preserve"
       style="font-size:16px;line-height:1.25;font-family:monospace;-inkscape-font-specification:monospace;fill:#ffffff"
       x="231.08096"
       y="284.41422"
       id="text226"><tspan
         sodipodi:role="line"
         id="tspan224"
         x="231.08096"
         y="284.41422">Rendering</tspan></text>
    <text
       xml:space="preserve"
       style="font-size:16px;line-height:1.25;font-family:monospace;-inkscape-font-specification:monospace;fill:#ffffff"
       x="217.94708"
       y="266.02679"
       id="text230"><tspan
         sodipodi:role="line"
         id="tspan228"
         x="217.94708"
         y="266.02679">Debug tools</tspan></text>
  </g>
  <text
     xml:space="preserve"
     style="font-size:16px;line-height:1.25;font-family:monospace;-inkscape-font-specification:monospace;fill:#ffffff;"
     x="309.35892"
     y="349.03296"
     id="label-3"><tspan
       sodipodi:role="line"
       id="tspan232"
       x="309.35892"
       y="349.03296">Audio</tspan></text>
  <text
     xml:space="preserve"
     style="font-size:16px;line-height:1.25;font-family:monospace;-inkscape-font-specification:monospace;fill:#ffffff;"
     x="475.96613"
     y="51.503796"
     id="label-4"><tspan
       sodipodi:role="line"
       id="tspan212"
       x="475.96613"
       y="51.503796">Rewrite all tests</tspan></text>
  <text
     xml:space="preserve"
     style="font-size:16px;line-height:1.25;font-family:monospace;-inkscape-font-specification:monospace;fill:#ffffff;"
     x="525.87488"
     y="280.55875"
     id="label-5"><tspan
       sodipodi:role="line"
       id="tspan236"
       x="525.87488"
       y="280.55875">Refactor tests again</tspan></text>
</svg>
